HIERARCHY
ROOT RootJoint
{
    OFFSET   0.000000   0.000000   0.000000
    CHANNELS 6 Xposition Yposition Zposition Xrotation Yrotation Zrotation
    JOINT pelvis_lowerback
    {
        OFFSET   0.000000   0.093605   0.000000
        CHANNELS 3 Xrotation Yrotation Zrotation
        JOINT lowerback_torso
        {
            OFFSET   0.000000   0.100000   0.000000
            CHANNELS 3 Xrotation Yrotation Zrotation
            JOINT torso_head
            {
                OFFSET   0.000000   0.282350   0.000000
                CHANNELS 3 Xrotation Yrotation Zrotation
                End Site
                {
                    OFFSET   0.000000   0.192650   0.000000
                }
            }
            JOINT rTorso_Clavicle
            {
                OFFSET  -0.001000   0.157500   0.000000
                CHANNELS 3 Xrotation Yrotation Zrotation
                JOINT rShoulder
                {
                    OFFSET  -0.117647   0.000000   0.000000
                    CHANNELS 3 Xrotation Yrotation Zrotation
                    JOINT rElbow
                    {
                        OFFSET  -0.245000   0.000000   0.000000
                        CHANNELS 3 Xrotation Yrotation Zrotation
                        JOINT rWrist
                        {
                            OFFSET  -0.240000   0.000000   0.000000
                            CHANNELS 3 Xrotation Yrotation Zrotation
                            End Site
                            {
                                OFFSET  -0.116353  -0.002500   0.000000
                            }
                        }
                    }
                }
            }
            JOINT lTorso_Clavicle
            {
                OFFSET   0.001000   0.157500   0.000000
                CHANNELS 3 Xrotation Yrotation Zrotation
                JOINT lShoulder
                {
                    OFFSET   0.117647   0.000000   0.000000
                    CHANNELS 3 Xrotation Yrotation Zrotation
                    JOINT lElbow
                    {
                        OFFSET   0.245000   0.000000   0.000000
                        CHANNELS 3 Xrotation Yrotation Zrotation
                        JOINT lWrist
                        {
                            OFFSET   0.240000   0.000000   0.000000
                            CHANNELS 3 Xrotation Yrotation Zrotation
                            End Site
                            {
                                OFFSET   0.116353  -0.002500   0.000000
                            }
                        }
                    }
                }
            }
        }
    }
    JOINT rHip
    {
        OFFSET  -0.100000  -0.051395   0.000000
        CHANNELS 3 Xrotation Yrotation Zrotation
        JOINT rKnee
        {
            OFFSET   0.000000  -0.410000   0.000000
            CHANNELS 3 Xrotation Yrotation Zrotation
            JOINT rAnkle
            {
                OFFSET   0.000000  -0.390000   0.000000
                CHANNELS 3 Xrotation Yrotation Zrotation
                JOINT rToeJoint
                {
                    OFFSET   0.000000  -0.050000   0.130000
                    CHANNELS 3 Xrotation Yrotation Zrotation
                    End Site
                    {
                        OFFSET  -0.010000   0.002000   0.060000
                    }
                }
            }
        }
    }
    JOINT lHip
    {
        OFFSET   0.100000  -0.051395   0.000000
        CHANNELS 3 Xrotation Yrotation Zrotation
        JOINT lKnee
        {
            OFFSET   0.000000  -0.410000   0.000000
            CHANNELS 3 Xrotation Yrotation Zrotation
            JOINT lAnkle
            {
                OFFSET   0.000000  -0.390000   0.000000
                CHANNELS 3 Xrotation Yrotation Zrotation
                JOINT lToeJoint
                {
                    OFFSET   0.000000  -0.050000   0.130000
                    CHANNELS 3 Xrotation Yrotation Zrotation
                    End Site
                    {
                        OFFSET   0.010000   0.002000   0.060000
                    }
                }
            }
        }
    }
}
MOTION
Frames: 14
Frame Time:   0.008333
 -2.376719   0.925631   3.975860   0.000000   0.000000   0.000000   0.000000   0.000000   0.000000   0.000000   0.000000   0.000000   0.000000   0.000000   0.000000   0.000000   0.000000   0.000000   0.000000   0.000000   0.000000   0.000000   0.000000   0.000000   0.000000   0.000000   0.000000   0.000000   0.000000   0.000000   0.000000   0.000000   0.000000   0.000000   0.000000   0.000000   0.000000   0.000000   0.000000   0.000000   0.000000   0.000000   0.000000   0.000000   0.000000   0.000000   0.000000   0.000000   0.000000   0.000000   0.000000   0.000000   0.000000   0.000000   0.000000   0.000000   0.000000   0.000000   0.000000   0.000000   0.000000   0.000000   0.000000
 -2.375944   0.925638   3.973601   2.111553  -0.014470   0.565166  -2.175327   0.197269  -0.434079   0.142129  -0.199197  -0.245803  -0.191976  -0.223095   0.163445   0.305837  -0.524384  -0.531425   0.661847  -0.049213   2.607370   0.016497   0.959630  -0.008784   0.148616   0.099136  -1.962287   0.229990   0.537105   0.553567   0.918462   0.047184  -2.431893   0.017403  -0.993466   0.010698   0.107806  -0.020419   1.888689  -3.156042  -0.558268  -0.654617   1.482553   0.001006  -0.007836  -1.042779  -0.648248   0.781736  -0.106433   0.000644   0.001160  -2.997275   0.439805  -0.816073   1.420744   0.003228   0.004843  -0.738809   0.742207   0.407261   0.118320  -0.000157   0.001176
 -2.375008   0.925741   3.970975   4.151129   0.007029   1.197877  -4.090379   0.393472  -0.872305   0.295087  -0.410767  -0.556736  -0.382123  -0.441540   0.315889   0.594785  -1.103579  -0.560085   1.321661  -0.124425   5.613980   0.035976   1.857393  -0.016356   0.333411   0.371953  -3.310526   0.452095   1.117819   0.520773   1.784784   0.099112  -5.157889   0.037787  -1.924506   0.019511   0.255959  -0.214076   3.067695  -6.327341  -1.087357  -1.357970   2.860150   0.001034  -0.013656  -2.009054  -1.281041   1.495539  -0.223291   0.001193   0.002184  -5.889600   0.932675  -1.774899   2.767583   0.006854   0.008523  -1.435629   1.439094   0.797418   0.190694  -0.000149   0.001643
 -2.374031   0.926168   3.968365   6.088091   0.165014   1.684814  -5.828764   0.531864  -1.179664   0.489356  -0.657392  -0.836504  -0.541428  -0.647550   0.462393   0.868605  -1.698220  -0.228574   1.980559  -0.207920   8.877500   0.054493   2.679558  -0.021989   0.514935   0.597730  -4.111131   0.665886   1.673179   0.042722   2.596137   0.117080  -8.024861   0.056873  -2.787956   0.025929   0.402900  -0.409000   3.590833  -9.295512  -1.512765  -2.064086   4.349483   0.002517  -0.016468  -2.752848  -1.837080   2.084756  -0.354807   0.001427   0.002857  -8.608959   1.436610  -2.647758   4.009678   0.010208   0.012047  -2.091828   2.083332   1.168647   0.251994  -0.000096   0.001934
 -2.373185   0.926411   3.965761   7.945039   0.331516   2.122927  -7.414528   0.672506  -1.490481   0.699005  -0.894531  -1.100229  -0.679111  -0.839379   0.606961   1.130624  -2.269421   0.332731   2.640491  -0.268433  12.329585   0.070093   3.439451  -0.025962   0.687168   0.776839  -4.465447   0.872933   2.198258  -0.669370   3.354285   0.098399 -10.901497   0.072400  -3.590495   0.030314   0.542548  -0.588333   3.633599 -12.094562  -1.906520  -2.725148   5.665996   0.003242  -0.018120  -3.517176  -2.393750   2.673073  -0.455329   0.001517   0.003130 -11.157622   1.958831  -3.502828   5.154632   0.012970   0.014190  -2.710179   2.680849   1.522046   0.296691  -0.000038   0.001976
 -2.372487   0.926407   3.963191   9.724309   0.480866   2.490570  -8.863054   0.815262  -1.774620   0.915412  -1.114876  -1.347167  -0.799261  -1.018262   0.741243   1.380833  -2.802353   1.047941   3.293411  -0.291116  15.880463   0.082235   4.146194  -0.028509   0.850976   0.932310  -4.507361   1.073644   2.689084  -1.528743   4.060398   0.043622 -13.726015   0.083919  -4.338204   0.033049   0.674282  -0.755621   3.370068 -14.758880  -2.254439  -3.305063   6.864902   0.003430  -0.018964  -4.221765  -2.924314   3.222859  -0.556317   0.001576   0.003322 -13.537775   2.487290  -4.305249   6.216279   0.015104   0.015145  -3.291539   3.234779   1.858072   0.333003   0.000015   0.001903
 -2.371890   0.926155   3.960696  11.427324   0.605017   2.782259 -10.191431   0.955140  -2.020578   1.131990  -1.321174  -1.559316  -0.903767  -1.185045   0.861561   1.620130  -3.298344   1.906420   3.903355  -0.272125  19.333099   0.090477   4.804935  -0.029669   1.007598   1.076511  -4.259755   1.268066   3.146518  -2.480044   4.716054  -0.042953 -16.466867   0.091560  -5.035682   0.034439   0.798280  -0.914492   2.900956 -17.301038  -2.563579  -3.796100   7.977153   0.003306  -0.019274  -4.859969  -3.429085   3.739555  -0.651204   0.001587   0.003399 -15.752268   3.014529  -5.048317   7.204059   0.016710   0.015251  -3.837490   3.748502   2.177220   0.364673   0.000061   0.001782
 -2.371256   0.924678   3.958479  12.457047   0.334433   2.884736 -10.863099   1.280514  -1.976830   1.449879  -1.555000  -1.669028  -1.042232  -1.549724   0.894768   1.859152  -3.481447   2.351128   4.368939   0.059197  22.463024   0.089234   5.326936  -0.029351   1.143842   0.825350  -3.265672   1.482128   3.750148  -2.943002   5.317087  -0.417227 -19.515835   0.101677  -5.910942   0.038232   0.837880  -0.919572   1.995537 -19.740882  -3.114214  -3.984568  11.271605   0.000117  -0.044045  -5.799869  -4.260389   3.989558  -1.254455   0.001688   0.012666 -17.082748   3.597524  -5.500765   7.916917   0.016528   0.012948  -4.397647   4.415510   2.740715   0.523036  -0.000051   0.002613
 -2.370628   0.922136   3.956717  13.318032   0.070916   2.936239 -11.503449   1.573212  -1.885590   1.790211  -1.766099  -1.742090  -1.150374  -1.904941   0.937984   2.063871  -3.569278   2.616085   4.762138   0.442563  25.276014   0.085756   5.836401  -0.028223   1.286259   0.620485  -2.357696   1.676001   4.277402  -3.297872   5.847815  -0.827152 -22.321003   0.105983  -6.752631   0.039482   0.888666  -1.063234   1.062891 -21.942460  -3.668665  -4.115943  14.849280  -0.005888  -0.064983  -6.653843  -5.049730   4.209466  -1.767075   0.001393   0.018431 -18.221005   4.130125  -5.895111   8.604797   0.016239   0.010930  -4.925105   5.034230   3.274195   0.680795  -0.000098   0.003176
 -2.370035   0.918614   3.955344  14.111507  -0.164448   2.966749 -12.154373   1.849217  -1.786202   2.080620  -1.957236  -1.804572  -1.252304  -2.238136   0.984966   2.246835  -3.624295   2.768817   5.101507   0.830109  27.830707   0.080705   6.321737  -0.026383   1.429612   0.478141  -1.618269   1.851348   4.751599  -3.566911   6.317966  -1.240632 -24.891628   0.105849  -7.546249   0.038570   0.939009  -1.260443   0.236508 -23.901596  -4.192825  -4.226364  18.290772  -0.012677  -0.077669  -7.442164  -5.789689   4.402840  -2.214530   0.000984   0.021529 -19.279026   4.632703  -6.265302   9.254496   0.015815   0.009301  -5.421620   5.606877   3.777780   0.831942  -0.000093   0.003529
 -2.369498   0.914816   3.953685  14.791347  -0.391723   2.893782 -12.677364   2.107469  -1.615128   2.354099  -2.129685  -1.833121  -1.360944  -2.549527   1.033672   2.399416  -3.627884   2.879648   5.384353   1.230132  30.174069   0.075058   6.783821  -0.024583   1.567282   0.379553  -1.032706   1.998491   5.152185  -3.817979   6.724722  -1.668717 -27.273987   0.103224  -8.295327   0.036941   0.982723  -1.482053  -0.474917 -26.039079  -4.495042  -4.150347  20.808296  -0.018087  -0.074221  -8.876548  -6.261902   4.464946  -2.582061   0.001277   0.020615 -20.280211   5.105655  -6.530480   9.871768   0.015347   0.008016  -5.886783   6.137701   4.253336   0.989463  -0.000036   0.003816
 -2.368911   0.910843   3.952260  15.312278  -0.594298   2.777381 -13.136495   2.349915  -1.429643   2.646012  -2.286044  -1.845401  -1.450820  -2.840084   1.082410   2.535661  -3.614836   2.960870   5.626315   1.621638  32.339989   0.069097   7.219773  -0.022590   1.702646   0.311660  -0.532439   2.130418   5.514564  -4.045092   7.082910  -2.089165 -29.487389   0.098841  -8.998302   0.034416   1.023779  -1.714056  -1.122123 -28.114048  -4.894311  -4.056769  23.511481  -0.023910  -0.072821 -10.119426  -6.846923   4.465932  -2.956923   0.001247   0.020517 -21.130457   5.541501  -6.773568  10.450390   0.014881   0.006972  -6.325156   6.629724   4.701949   1.136751   0.000068   0.003944
 -2.367904   0.908799   3.951348  15.712333  -0.625217   3.303781 -13.569792   2.589452  -1.759498   2.925590  -2.433700  -2.096512  -1.527254  -3.111104   1.110048   2.661530  -3.597101   3.191240   5.833975   2.002379  34.435476   0.063660   7.627691  -0.020349   1.834355   0.247771  -0.077830   2.251810   5.850525  -4.320717   7.401298  -2.488021 -31.541706   0.093874  -9.645916   0.031136   1.062344  -1.892008  -1.650695 -30.048521  -5.210950  -4.706170  25.991934  -0.027074  -0.072319 -10.760947  -7.474147   4.572088  -3.303356   0.001110   0.020623 -22.098983   5.865324  -7.317691  11.501309   0.013271   0.005140  -6.302797   7.003029   5.287448   1.310184  -0.000686   0.003664
 -2.367013   0.907960   3.950852  15.879793  -0.770129   3.499460 -13.585416   2.761873  -1.853128   2.898480  -2.522223  -2.108916  -1.646262  -3.279207   1.043455   2.692062  -3.700244   3.029306   6.051582   2.521077  36.250944   0.059259   8.148147  -0.018423   1.852026   0.183918   0.897637   2.350100   6.187441  -4.360486   7.653828  -2.868984 -33.523497   0.088329 -10.355865   0.027674   1.053583  -1.939081  -2.799408 -31.238744  -5.701658  -4.971802  27.484304  -0.027261  -0.067008 -10.536277  -8.072552   4.597183  -3.140011   0.000931   0.014423 -22.494632   6.022270  -7.512791  11.900388   0.010927   0.003642  -6.206758   7.533615   5.705968   1.526137  -0.001197   0.003705
